<mxfile host="app.diagrams.net" modified="2022-07-18T09:52:37.008Z" agent="5.0 (Macintosh; Intel Mac OS X 10_15_7) AppleWebKit/537.36 (KHTML, like Gecko) Chrome/103.0.0.0 Safari/537.36" etag="Su7WBPlHpXMz99VzCQe4" version="20.1.1" type="github">
  <diagram id="XHP_3BE9zmkOC5CmtPTj" name="Page-1">
    <mxGraphModel dx="904" dy="496" grid="1" gridSize="10" guides="1" tooltips="1" connect="1" arrows="1" fold="1" page="1" pageScale="1" pageWidth="850" pageHeight="1100" math="0" shadow="0">
      <root>
        <mxCell id="0" />
        <mxCell id="1" parent="0" />
        <mxCell id="e1uhodh3GVu-z7TaUT-w-3" style="edgeStyle=orthogonalEdgeStyle;rounded=0;orthogonalLoop=1;jettySize=auto;html=1;exitX=0.5;exitY=0.5;exitDx=0;exitDy=0;exitPerimeter=0;entryX=0.5;entryY=0.5;entryDx=0;entryDy=0;entryPerimeter=0;" edge="1" parent="1" source="e1uhodh3GVu-z7TaUT-w-1" target="e1uhodh3GVu-z7TaUT-w-2">
          <mxGeometry relative="1" as="geometry" />
        </mxCell>
        <mxCell id="e1uhodh3GVu-z7TaUT-w-4" value="分享链接" style="edgeLabel;html=1;align=center;verticalAlign=middle;resizable=0;points=[];" vertex="1" connectable="0" parent="e1uhodh3GVu-z7TaUT-w-3">
          <mxGeometry x="-0.1371" y="1" relative="1" as="geometry">
            <mxPoint as="offset" />
          </mxGeometry>
        </mxCell>
        <mxCell id="e1uhodh3GVu-z7TaUT-w-1" value="用户A" style="shape=umlActor;verticalLabelPosition=bottom;verticalAlign=top;html=1;outlineConnect=0;" vertex="1" parent="1">
          <mxGeometry x="60" y="90" width="30" height="60" as="geometry" />
        </mxCell>
        <mxCell id="e1uhodh3GVu-z7TaUT-w-6" style="edgeStyle=orthogonalEdgeStyle;rounded=0;orthogonalLoop=1;jettySize=auto;html=1;exitX=0.5;exitY=0.5;exitDx=0;exitDy=0;exitPerimeter=0;entryX=0;entryY=0.5;entryDx=0;entryDy=0;" edge="1" parent="1" source="e1uhodh3GVu-z7TaUT-w-2" target="e1uhodh3GVu-z7TaUT-w-5">
          <mxGeometry relative="1" as="geometry" />
        </mxCell>
        <mxCell id="e1uhodh3GVu-z7TaUT-w-26" style="edgeStyle=orthogonalEdgeStyle;rounded=0;orthogonalLoop=1;jettySize=auto;html=1;exitX=0.5;exitY=0.5;exitDx=0;exitDy=0;exitPerimeter=0;entryX=0;entryY=0.5;entryDx=0;entryDy=0;" edge="1" parent="1" source="e1uhodh3GVu-z7TaUT-w-2" target="e1uhodh3GVu-z7TaUT-w-25">
          <mxGeometry relative="1" as="geometry" />
        </mxCell>
        <mxCell id="e1uhodh3GVu-z7TaUT-w-28" style="edgeStyle=orthogonalEdgeStyle;rounded=0;orthogonalLoop=1;jettySize=auto;html=1;exitX=0.5;exitY=0.5;exitDx=0;exitDy=0;exitPerimeter=0;entryX=0;entryY=0.5;entryDx=0;entryDy=0;" edge="1" parent="1" source="e1uhodh3GVu-z7TaUT-w-2" target="e1uhodh3GVu-z7TaUT-w-27">
          <mxGeometry relative="1" as="geometry" />
        </mxCell>
        <mxCell id="e1uhodh3GVu-z7TaUT-w-2" value="用户B" style="shape=umlActor;verticalLabelPosition=bottom;verticalAlign=top;html=1;outlineConnect=0;" vertex="1" parent="1">
          <mxGeometry x="160" y="90" width="30" height="60" as="geometry" />
        </mxCell>
        <mxCell id="e1uhodh3GVu-z7TaUT-w-9" style="edgeStyle=orthogonalEdgeStyle;rounded=0;orthogonalLoop=1;jettySize=auto;html=1;exitX=0.5;exitY=0;exitDx=0;exitDy=0;entryX=0;entryY=0.5;entryDx=0;entryDy=0;" edge="1" parent="1" source="e1uhodh3GVu-z7TaUT-w-5" target="e1uhodh3GVu-z7TaUT-w-7">
          <mxGeometry relative="1" as="geometry" />
        </mxCell>
        <mxCell id="e1uhodh3GVu-z7TaUT-w-11" value="是" style="edgeLabel;html=1;align=center;verticalAlign=middle;resizable=0;points=[];" vertex="1" connectable="0" parent="e1uhodh3GVu-z7TaUT-w-9">
          <mxGeometry x="0.2258" y="2" relative="1" as="geometry">
            <mxPoint as="offset" />
          </mxGeometry>
        </mxCell>
        <mxCell id="e1uhodh3GVu-z7TaUT-w-10" style="edgeStyle=orthogonalEdgeStyle;rounded=0;orthogonalLoop=1;jettySize=auto;html=1;exitX=0.5;exitY=1;exitDx=0;exitDy=0;entryX=0;entryY=0.5;entryDx=0;entryDy=0;" edge="1" parent="1" source="e1uhodh3GVu-z7TaUT-w-5" target="e1uhodh3GVu-z7TaUT-w-8">
          <mxGeometry relative="1" as="geometry" />
        </mxCell>
        <mxCell id="e1uhodh3GVu-z7TaUT-w-12" value="否" style="edgeLabel;html=1;align=center;verticalAlign=middle;resizable=0;points=[];" vertex="1" connectable="0" parent="e1uhodh3GVu-z7TaUT-w-10">
          <mxGeometry x="0.1662" y="-1" relative="1" as="geometry">
            <mxPoint as="offset" />
          </mxGeometry>
        </mxCell>
        <mxCell id="e1uhodh3GVu-z7TaUT-w-5" value="是否安装app" style="rhombus;whiteSpace=wrap;html=1;" vertex="1" parent="1">
          <mxGeometry x="250" y="105" width="80" height="30" as="geometry" />
        </mxCell>
        <mxCell id="e1uhodh3GVu-z7TaUT-w-7" value="跳转至app" style="rounded=0;whiteSpace=wrap;html=1;" vertex="1" parent="1">
          <mxGeometry x="380" y="60" width="70" height="30" as="geometry" />
        </mxCell>
        <mxCell id="e1uhodh3GVu-z7TaUT-w-8" value="跳转至应用市场，下载app" style="rounded=0;whiteSpace=wrap;html=1;" vertex="1" parent="1">
          <mxGeometry x="380" y="135" width="90" height="40" as="geometry" />
        </mxCell>
        <mxCell id="e1uhodh3GVu-z7TaUT-w-25" value="通过浏览器跳转至指定页面" style="rounded=0;whiteSpace=wrap;html=1;" vertex="1" parent="1">
          <mxGeometry x="250" y="220" width="90" height="40" as="geometry" />
        </mxCell>
        <mxCell id="e1uhodh3GVu-z7TaUT-w-27" value="在微信H5中打开" style="rounded=0;whiteSpace=wrap;html=1;" vertex="1" parent="1">
          <mxGeometry x="250" y="300" width="100" height="30" as="geometry" />
        </mxCell>
      </root>
    </mxGraphModel>
  </diagram>
</mxfile>
